<?xml version="1.0" standalone="no"?>
<!DOCTYPE svg PUBLIC "-//W3C//DTD SVG 20010904//EN"
 "http://www.w3.org/TR/2001/REC-SVG-20010904/DTD/svg10.dtd">
<svg version="1.0" xmlns="http://www.w3.org/2000/svg"
 width="2816.000000pt" height="2816.000000pt" viewBox="0 0 2816.000000 2816.000000"
 preserveAspectRatio="xMidYMid meet">
<metadata>
Created by potrace 1.14, written by Peter Selinger 2001-2017
</metadata>
<g transform="translate(0.000000,2816.000000) scale(0.100000,-0.100000)"
fill="#000000" stroke="none">
<path d="M646 18103 c-4 -4 -22 -6 -41 -5 -34 3 -35 2 -25 -25 6 -15 14 -37
19 -48 5 -11 33 -81 61 -155 28 -74 55 -144 60 -155 5 -11 30 -74 55 -140 26
-66 52 -131 57 -145 6 -14 12 -32 14 -40 2 -8 7 -23 12 -35 6 -11 26 -63 47
-115 20 -52 44 -113 53 -135 9 -21 17 -42 17 -45 0 -3 12 -34 26 -70 15 -36
37 -92 49 -125 12 -33 28 -73 35 -90 8 -16 25 -61 39 -100 15 -38 30 -79 36
-90 5 -11 36 -92 70 -180 33 -88 64 -169 69 -180 22 -53 53 -131 55 -140 2 -5
8 -22 14 -37 7 -16 17 -40 24 -55 6 -16 12 -35 14 -43 2 -8 15 -44 29 -80 15
-36 31 -74 35 -85 8 -19 21 -55 25 -65 1 -3 7 -18 14 -35 7 -16 46 -118 87
-225 42 -107 82 -209 90 -227 8 -17 14 -34 14 -38 0 -4 7 -21 15 -38 12 -28
57 -143 60 -157 2 -7 16 -42 25 -65 5 -11 18 -41 28 -67 11 -25 18 -49 14 -52
-3 -3 -1 -6 5 -6 5 0 10 -6 10 -12 0 -12 77 -213 109 -285 8 -17 14 -33 14
-36 0 -3 5 -18 12 -34 6 -15 12 -31 12 -35 1 -3 4 -10 9 -14 4 -4 7 -13 7 -19
0 -7 10 -34 22 -61 12 -27 23 -53 24 -59 2 -13 71 -192 88 -230 8 -16 28 -68
46 -115 17 -47 36 -93 41 -102 5 -10 9 -22 9 -28 0 -6 8 -29 19 -53 10 -23 33
-80 51 -127 18 -47 41 -104 51 -127 11 -24 19 -46 19 -49 0 -8 76 -205 96
-249 7 -16 24 -59 37 -95 31 -84 145 -379 157 -405 6 -16 52 -133 96 -250 4
-11 6 -23 6 -27 -1 -5 3 -8 8 -8 5 0 9 -3 8 -7 -3 -9 85 -241 126 -335 9 -20
16 -39 16 -43 0 -4 6 -21 14 -38 8 -18 33 -81 56 -142 23 -60 45 -119 50 -130
5 -11 25 -63 45 -115 20 -52 43 -111 51 -130 19 -47 37 -94 39 -100 1 -3 5
-14 10 -25 4 -11 18 -49 32 -85 24 -62 86 -223 103 -265 4 -11 16 -40 26 -65
11 -24 19 -47 19 -50 1 -10 87 -225 101 -252 8 -16 13 -28 10 -28 -3 0 5 -25
19 -55 13 -30 21 -55 18 -55 -3 0 -1 -6 4 -12 6 -7 29 -62 52 -123 24 -60 62
-159 85 -220 48 -124 57 -148 58 -155 0 -3 4 -13 9 -22 9 -17 59 -18 833 -18
l824 0 18 43 c10 23 18 44 19 47 2 6 23 58 32 80 3 8 5 18 5 23 -1 4 2 7 8 7
6 0 9 3 8 8 0 4 2 16 7 27 60 149 141 349 155 380 10 22 41 99 70 170 51 126
72 179 90 220 47 108 70 166 70 177 0 8 4 18 8 24 5 5 21 41 36 79 16 39 39
95 53 125 14 30 27 62 28 71 2 9 8 25 14 35 6 11 29 66 52 124 23 58 49 123
59 145 17 39 32 75 35 85 1 3 6 16 12 30 75 178 150 370 145 370 -4 0 -1 4 6
9 7 4 14 14 15 22 2 8 6 20 11 27 4 7 11 25 16 40 5 15 24 64 43 109 19 45 32
84 29 87 -3 4 -1 6 5 6 6 0 13 10 17 23 3 13 13 41 23 63 9 21 17 41 18 44 1
3 6 16 12 30 71 168 130 320 125 324 -3 3 -1 6 4 6 6 0 16 17 24 38 17 46 16
42 25 70 11 33 20 27 40 -25 10 -27 21 -52 25 -58 3 -5 12 -29 20 -52 7 -24
17 -43 22 -43 4 0 7 -3 6 -7 -2 -8 34 -109 51 -140 15 -29 66 -153 113 -273 5
-14 10 -27 10 -30 0 -3 5 -14 11 -25 6 -11 12 -22 12 -25 0 -3 6 -15 13 -26 6
-12 8 -24 5 -28 -3 -3 -2 -6 4 -6 5 0 10 -6 10 -12 1 -7 40 -105 88 -218 48
-113 93 -222 100 -243 8 -20 21 -53 30 -72 50 -114 112 -264 135 -327 9 -26
22 -54 29 -62 8 -9 11 -16 8 -16 -5 0 8 -33 52 -135 13 -29 24 -59 25 -67 1
-4 7 -13 14 -19 6 -7 12 -18 12 -24 0 -9 71 -188 115 -290 13 -31 19 -46 175
-425 51 -124 101 -243 111 -266 11 -22 19 -43 19 -47 0 -4 13 -35 29 -69 15
-35 34 -80 42 -101 l13 -37 821 2 820 3 31 80 c17 44 34 89 39 100 4 11 23 61
42 110 18 50 39 104 47 120 8 17 22 53 32 80 9 28 24 66 33 85 8 19 15 37 16
40 1 7 75 199 90 235 7 17 25 62 40 100 14 39 34 88 43 110 9 21 18 43 18 47
1 4 3 10 4 13 1 3 3 8 5 13 1 4 6 18 12 32 18 41 103 259 139 355 19 50 39 99
44 110 5 11 32 81 60 155 29 74 60 154 71 177 10 24 19 47 19 52 0 5 16 46 35
90 19 45 34 82 34 84 -1 5 87 231 107 274 7 17 14 33 14 36 0 3 5 18 12 34 6
15 12 33 14 38 3 11 169 435 184 473 16 35 26 63 50 127 13 33 29 74 35 90 7
17 23 57 35 90 13 33 31 78 40 100 9 22 23 56 29 75 7 19 17 44 22 55 15 36
91 230 93 240 2 6 9 24 15 40 7 17 14 37 16 46 2 9 8 25 14 35 12 20 33 72 36
90 2 6 10 27 18 45 9 19 70 176 138 349 67 173 144 371 172 440 27 69 49 131
50 138 0 6 4 12 9 12 4 0 7 3 6 8 -2 4 6 27 16 52 11 25 20 50 22 55 2 10 149
387 175 450 7 17 13 33 13 37 1 3 4 10 9 14 4 4 7 14 7 21 0 8 9 33 20 55 11
23 20 46 20 50 0 5 8 28 19 51 10 23 36 89 58 147 22 58 44 114 48 125 5 11 9
22 10 25 1 3 9 22 18 44 9 21 17 40 17 43 0 4 156 405 170 438 5 11 25 61 44
110 19 50 40 104 47 120 7 17 13 32 13 35 1 3 5 11 9 18 5 6 5 12 2 12 -3 0 1
12 9 28 8 15 23 50 32 77 10 28 24 61 31 75 7 14 13 31 13 38 0 7 4 20 10 30
11 20 122 303 121 309 0 2 15 38 33 81 18 43 37 92 41 110 3 18 11 32 16 32 5
0 9 6 9 14 0 8 38 112 85 231 47 119 85 218 85 220 0 6 -430 6 -441 -1 -4 -2
-10 0 -14 6 -4 6 -11 8 -16 4 -9 -5 -119 -8 -144 -3 -5 1 -14 1 -20 0 -5 -2
-70 -2 -145 -1 -74 1 -142 1 -150 1 -15 -1 -104 -1 -339 -2 -68 0 -128 -2
-132 -5 -4 -2 -10 0 -14 6 -4 6 -11 8 -16 4 -9 -5 -119 -8 -144 -3 -5 1 -14 1
-20 0 -5 -2 -70 -2 -145 -1 -74 1 -142 1 -150 1 -8 -1 -50 -1 -92 -2 -82 -1
-82 -1 -103 -71 -1 -5 -4 -10 -5 -13 -1 -3 -4 -9 -5 -15 -1 -5 -4 -12 -5 -15
-1 -3 -3 -8 -4 -12 -1 -5 -10 -33 -20 -63 -10 -30 -20 -62 -22 -70 -3 -8 -5
-16 -4 -18 0 -1 -6 -15 -14 -31 -8 -15 -17 -39 -20 -52 -4 -20 -30 -96 -79
-229 -3 -8 -23 -69 -45 -135 -57 -170 -162 -477 -169 -495 -4 -8 -7 -19 -8
-25 0 -5 -3 -14 -6 -20 -6 -10 -40 -109 -45 -130 -2 -5 -28 -82 -59 -170 -31
-88 -58 -168 -60 -179 -2 -10 -9 -24 -16 -32 -6 -8 -9 -14 -6 -14 3 0 -4 -26
-15 -57 -11 -32 -21 -65 -23 -73 -2 -8 -11 -32 -19 -52 -9 -21 -13 -38 -10
-38 4 0 2 -6 -3 -12 -9 -11 -66 -171 -79 -218 -2 -8 -29 -87 -59 -175 -31 -88
-72 -207 -91 -265 -19 -58 -39 -112 -44 -121 -5 -9 -12 -33 -15 -53 -4 -20
-10 -36 -14 -36 -4 0 -8 -6 -8 -12 0 -7 -19 -67 -41 -133 -87 -258 -174 -511
-182 -530 -5 -11 -16 -45 -26 -75 -9 -30 -21 -61 -27 -67 -5 -7 -7 -13 -3 -13
5 0 -28 -100 -54 -165 -4 -11 -38 -110 -75 -220 -62 -185 -118 -349 -132 -385
-3 -8 -7 -19 -8 -25 0 -5 -4 -17 -7 -25 -15 -36 -78 -218 -78 -226 0 -7 -23
-73 -57 -164 -3 -8 -7 -19 -8 -25 -2 -5 -28 -84 -59 -175 -31 -91 -59 -171
-61 -178 -3 -7 -5 -16 -6 -20 -1 -4 -10 -29 -21 -57 -11 -27 -21 -57 -23 -65
-3 -13 -113 -330 -128 -370 -3 -8 -17 -48 -30 -88 -17 -53 -26 -69 -34 -60 -5
7 -33 78 -63 158 -29 80 -58 156 -63 170 -6 14 -11 27 -12 30 -1 3 -5 12 -8
20 -3 8 -32 83 -63 165 -31 83 -65 173 -76 200 -11 28 -21 55 -22 60 -1 6 -8
21 -13 35 -6 14 -25 62 -42 108 -75 201 -93 248 -102 267 -12 29 -32 78 -35
90 -2 10 -67 182 -83 220 -5 11 -18 47 -31 80 -12 33 -26 69 -31 80 -6 12 -11
27 -13 35 -2 8 -9 29 -16 45 -14 35 -80 207 -121 318 -20 57 -26 84 -19 100
12 31 23 60 26 72 1 6 14 39 28 74 14 36 26 68 26 72 0 3 8 24 17 45 9 22 17
41 18 44 5 23 30 87 38 98 5 6 7 12 4 12 -4 0 2 20 13 45 11 25 19 47 20 50 0
3 7 21 15 41 8 20 15 39 15 41 0 10 80 228 90 245 6 10 10 22 10 27 0 5 4 20
9 33 5 13 10 28 11 33 2 6 16 42 32 80 16 39 29 71 29 72 -1 4 9 34 29 88 10
28 27 73 36 100 10 28 17 52 15 54 -1 2 1 7 6 10 8 6 50 118 58 154 2 9 7 23
12 30 4 6 9 21 10 32 2 10 9 23 16 27 6 4 9 8 5 8 -3 0 4 27 17 59 13 33 20
62 17 65 -3 3 0 6 6 6 7 0 11 3 10 8 -2 7 21 80 31 97 3 6 6 15 8 20 1 6 27
78 58 160 31 83 71 193 90 245 19 52 45 124 58 160 14 36 27 73 31 82 3 10 9
26 13 35 3 10 7 20 8 23 1 3 4 12 8 20 3 8 13 37 22 64 9 27 19 54 23 60 3 6
8 20 9 30 2 11 7 24 12 30 4 6 12 25 16 41 10 38 9 34 24 70 7 17 14 35 15 40
2 6 6 17 9 25 4 8 16 42 27 75 12 33 26 69 31 80 8 19 67 180 110 305 11 30
24 64 29 75 12 27 70 186 75 205 2 8 10 32 19 52 9 21 16 41 16 46 0 6 -357 9
-872 8 l-873 -1 -68 -205 c-124 -375 -179 -543 -182 -559 -2 -9 -4 -16 -5 -16
-1 0 -3 -7 -5 -15 -2 -8 -15 -46 -28 -85 -27 -73 -157 -473 -161 -490 -1 -5
-4 -14 -7 -20 -5 -9 -9 -21 -25 -80 -1 -5 -12 -37 -23 -70 -12 -33 -23 -67
-25 -75 -2 -9 -30 -92 -61 -185 -31 -94 -58 -177 -60 -185 -2 -8 -15 -49 -29
-90 -15 -41 -26 -75 -26 -75 1 0 -1 -7 -4 -15 -3 -8 -24 -73 -47 -145 -69
-216 -98 -300 -100 -292 -3 15 -6 23 -17 50 -7 16 -12 32 -12 37 0 5 -5 21
-12 37 -6 15 -12 33 -13 39 -2 6 -60 186 -131 400 -70 214 -129 394 -130 399
-3 11 -124 384 -191 585 -25 74 -46 140 -48 145 -2 12 -6 22 -29 90 -10 28
-19 57 -21 65 -2 8 -8 26 -13 40 -5 14 -9 27 -9 30 1 10 -26 85 -34 96 -5 6
-6 14 -2 17 3 4 1 12 -4 19 -9 12 -73 203 -77 232 -1 6 -4 16 -7 21 -4 6 -27
76 -53 156 l-47 146 -862 0 c-474 0 -865 -1 -869 -3 -4 -3 7 -41 23 -87 17
-45 41 -111 54 -147 13 -36 34 -96 48 -133 14 -37 26 -71 27 -75 2 -4 4 -11 6
-17 2 -5 40 -111 84 -235 44 -124 84 -234 89 -245 5 -11 19 -49 31 -85 12 -36
26 -74 30 -85 4 -11 13 -36 20 -55 7 -19 16 -44 20 -55 9 -23 64 -177 66 -185
0 -3 4 -12 7 -20 4 -8 22 -60 42 -115 19 -55 39 -109 45 -120 5 -11 20 -54 34
-95 14 -41 44 -124 66 -185 23 -60 43 -117 44 -125 1 -9 5 -20 9 -26 3 -6 13
-33 22 -60 9 -27 20 -58 25 -69 11 -26 22 -57 26 -70 1 -5 16 -48 34 -95 18
-47 33 -89 34 -95 4 -12 15 -43 26 -70 8 -17 32 -91 35 -105 1 -3 6 -16 12
-30 27 -64 53 -137 53 -148 0 -7 4 -20 10 -30 5 -9 30 -75 55 -147 26 -71 49
-137 52 -145 4 -8 7 -17 7 -20 1 -3 6 -18 13 -35 19 -50 26 -70 29 -80 5 -16
45 -128 54 -150 4 -11 13 -36 20 -55 7 -19 16 -44 20 -55 5 -11 27 -72 50
-135 l40 -116 -26 -64 c-14 -36 -27 -72 -29 -80 -7 -25 -65 -184 -75 -205 -5
-11 -30 -78 -56 -150 -25 -71 -50 -139 -55 -150 -20 -45 -32 -80 -30 -88 1 -5
-5 -20 -13 -35 -14 -26 -73 -181 -81 -212 -2 -8 -22 -62 -45 -120 -22 -58 -41
-112 -43 -120 -1 -8 -4 -17 -7 -20 -3 -3 -11 -23 -19 -45 -17 -51 -58 -160
-77 -205 -8 -20 -16 -42 -18 -50 -2 -8 -8 -28 -15 -45 -6 -16 -23 -61 -37
-100 -14 -38 -28 -77 -31 -85 -4 -8 -7 -17 -7 -20 -1 -3 -4 -9 -7 -15 -4 -5
-14 -35 -24 -65 -10 -30 -22 -64 -28 -75 -6 -11 -12 -27 -14 -35 -1 -8 -14
-44 -28 -79 -14 -36 -25 -70 -25 -77 0 -6 -7 -15 -16 -18 -8 -3 -13 -2 -10 2
2 4 -1 21 -9 37 -10 23 -54 149 -60 175 -1 3 -5 13 -9 22 -4 9 -9 22 -10 30
-2 7 -5 20 -9 28 -15 43 -24 67 -74 210 -29 85 -55 162 -58 170 -20 66 -38
118 -46 132 -5 10 -9 22 -9 27 0 5 -5 22 -12 38 -6 15 -12 30 -12 33 -1 3 -5
11 -9 18 -5 6 -6 12 -3 12 5 0 1 14 -30 95 -4 11 -8 25 -10 30 -2 6 -31 89
-64 185 -34 96 -63 180 -64 185 -2 6 -6 19 -10 30 -5 11 -14 37 -22 58 -8 20
-11 37 -8 37 4 0 2 6 -3 13 -6 6 -41 102 -78 212 -37 110 -72 211 -78 225 -5
14 -11 30 -12 35 -2 6 -24 71 -50 145 -25 74 -48 142 -50 150 -16 60 -92 266
-100 272 -5 4 -7 8 -3 8 4 0 0 19 -8 43 -9 23 -17 47 -18 52 -2 6 -6 19 -10
30 -17 43 -19 50 -22 60 -1 6 -32 96 -69 200 -36 105 -68 199 -70 210 -3 10
-11 33 -19 50 -8 17 -17 43 -20 58 -2 14 -7 31 -11 37 -3 5 -28 74 -55 152
-27 79 -90 262 -140 408 -50 146 -116 339 -146 430 -31 91 -59 174 -64 185 -5
11 -27 74 -50 140 -48 140 -49 144 -50 150 -1 3 -12 35 -26 72 -14 38 -26 73
-28 78 -12 47 -42 131 -49 136 -5 3 -8 8 -6 10 1 2 -3 21 -10 42 -7 21 -14 44
-15 50 -3 21 -37 111 -53 140 -8 15 -12 27 -9 27 6 0 -50 166 -65 193 -5 10
-7 22 -4 27 3 4 0 14 -7 22 -7 7 -14 20 -16 28 -3 12 -27 86 -68 210 -3 8 -5
15 -5 15 1 0 -8 23 -18 50 -19 50 -19 50 -68 52 -26 1 -57 3 -68 3 -11 1 -37
0 -58 -2 -21 -2 -41 0 -44 4 -2 5 -9 5 -15 2 -13 -8 -96 -9 -104 -1 -4 3 -14
3 -23 -1 -9 -5 -25 -7 -36 -6 -29 4 -114 5 -292 4 -25 0 -63 0 -75 1 -7 0 -30
-2 -51 -3 -21 -2 -41 0 -44 4 -2 5 -9 5 -15 2 -13 -8 -96 -9 -104 -1 -4 3 -14
3 -23 -1 -9 -5 -25 -7 -36 -6 -29 4 -114 5 -292 4 -25 0 -63 0 -75 1 -7 0 -30
-2 -51 -3 -21 -2 -41 0 -44 4 -2 5 -9 5 -15 2 -13 -8 -96 -9 -104 -1 -4 3 -14
3 -23 -1 -9 -5 -25 -7 -36 -6 -30 4 -50 5 -167 3 -58 -1 -110 1 -116 5 -5 3
-12 2 -16 -1z"/>
<path d="M14147 18104 c-3 -4 -56 -6 -117 -5 -99 2 -110 0 -111 -16 -1 -10 -2
-27 -3 -38 0 -11 2 -30 6 -42 4 -13 4 -23 0 -23 -8 0 -7 -142 1 -165 4 -8 3
-15 -1 -15 -9 0 -7 -115 3 -129 3 -6 3 -11 -2 -11 -9 0 -9 -93 1 -108 3 -6 3
-13 -1 -15 -10 -6 -8 -191 1 -206 4 -6 4 -11 -1 -11 -10 0 -9 -113 1 -129 4
-6 4 -11 -1 -11 -9 0 -8 -94 1 -109 4 -5 3 -12 -1 -14 -10 -6 -8 -191 1 -206
4 -6 4 -11 -1 -11 -9 0 -8 -114 2 -129 3 -6 3 -11 -2 -11 -9 0 -9 -141 0 -165
4 -8 3 -15 -1 -15 -9 0 -7 -115 3 -129 3 -6 3 -11 -2 -11 -9 0 -9 -93 1 -108
3 -6 3 -13 -1 -15 -10 -6 -8 -191 1 -206 4 -6 4 -11 -1 -11 -10 0 -9 -113 1
-129 4 -6 4 -11 -1 -11 -9 0 -8 -94 1 -109 4 -5 3 -12 -1 -14 -10 -6 -8 -191
1 -206 4 -6 4 -11 -1 -11 -9 0 -8 -114 2 -129 3 -6 3 -11 -2 -11 -7 0 -7 -43
-2 -212 0 -7 -1 -42 -3 -76 -2 -35 0 -66 5 -69 4 -2 4 -10 0 -16 -10 -16 -10
-48 -1 -69 5 -9 5 -19 0 -22 -9 -5 -7 -69 2 -85 4 -5 3 -12 -1 -14 -5 -3 -7
-31 -5 -64 1 -32 2 -62 2 -68 0 -91 0 -143 0 -155 1 -8 0 -44 -2 -78 -2 -35 0
-66 5 -69 4 -2 4 -10 0 -16 -10 -16 -10 -48 -1 -69 5 -9 5 -19 0 -22 -9 -5 -7
-69 2 -85 4 -5 3 -12 -1 -14 -9 -6 -9 -115 0 -123 3 -4 2 -17 -3 -30 -6 -14
-6 -26 1 -29 5 -4 6 -12 2 -18 -9 -15 -10 -166 -1 -194 4 -13 4 -23 0 -23 -9
0 -7 -114 2 -129 4 -6 4 -11 -1 -11 -9 0 -8 -94 1 -109 4 -5 3 -12 -1 -14 -10
-6 -8 -191 1 -206 4 -6 4 -11 -1 -11 -9 0 -8 -114 2 -129 3 -6 3 -11 -2 -11
-9 0 -9 -93 1 -108 3 -6 3 -13 -1 -15 -10 -6 -8 -191 1 -206 4 -6 4 -11 -1
-11 -10 0 -9 -113 1 -129 4 -6 4 -11 -1 -11 -9 0 -8 -94 1 -109 4 -5 3 -12 -1
-14 -10 -6 -8 -191 1 -206 4 -6 4 -11 -1 -11 -9 0 -8 -114 2 -129 3 -6 3 -11
-2 -11 -9 0 -9 -93 1 -108 3 -6 3 -13 -1 -15 -10 -6 -8 -191 1 -206 4 -6 4
-11 -1 -11 -10 0 -9 -113 1 -129 4 -6 4 -11 -1 -11 -9 0 -8 -94 1 -109 4 -5 3
-12 -1 -14 -6 -4 -7 -92 -2 -252 0 -5 -1 -39 -3 -73 -2 -35 0 -66 5 -69 4 -2
4 -10 0 -16 -10 -16 -10 -48 -1 -69 5 -9 5 -19 0 -22 -9 -5 -7 -69 2 -85 4 -5
3 -12 -1 -14 -5 -3 -7 -31 -5 -64 1 -32 2 -62 2 -68 0 -91 0 -143 0 -155 1 -8
0 -44 -2 -78 -2 -35 0 -66 5 -69 4 -2 4 -10 0 -16 -10 -16 -10 -48 -1 -69 5
-9 5 -19 0 -22 -9 -5 -7 -69 2 -85 4 -5 3 -12 -1 -14 -5 -3 -7 -31 -5 -64 3
-69 3 -74 0 -115 -2 -18 0 -43 4 -55 4 -13 4 -23 0 -23 -9 0 -7 -115 3 -129 3
-6 2 -11 -3 -11 -5 0 -7 -13 -4 -30 l4 -30 2873 0 2873 0 -2 828 -1 827 -1924
2 c-1058 1 -1926 4 -1928 7 -7 6 -5 1714 1 1725 3 5 21 9 40 9 19 0 39 3 45 7
6 3 11 3 11 -2 0 -9 1400 -9 1424 0 9 4 16 3 16 -1 0 -9 123 -7 145 2 8 3 15
2 15 -2 0 -9 123 -7 145 2 8 3 15 2 15 -2 0 -9 123 -7 145 2 8 3 15 2 15 -2 0
-8 1032 -7 1055 1 8 4 15 3 15 -1 0 -7 33 -7 120 -3 13 1 15 93 15 766 l0 765
-1612 0 -1613 0 0 58 c-1 69 -1 1453 0 1500 l0 33 48 -2 c26 -1 53 1 59 4 7 4
14 3 18 -3 4 -6 13 -7 23 -2 9 5 28 6 42 2 14 -4 33 -3 43 2 11 6 17 5 17 -2
0 -7 6 -8 18 -2 9 5 26 6 37 2 11 -4 29 -4 41 0 11 5 27 5 34 0 7 -4 25 -4 41
0 15 5 29 6 32 4 3 -3 47 -4 132 -3 11 0 29 -1 40 -4 11 -2 28 0 37 4 10 6 19
5 23 -1 3 -5 15 -6 28 -1 12 5 31 6 42 4 11 -3 47 -4 80 -3 86 2 88 2 110 -3
11 -2 28 0 37 4 10 6 19 5 23 -1 3 -5 15 -6 28 -1 12 5 31 6 42 4 21 -5 45 -6
85 -4 14 1 32 1 40 1 8 -1 29 -1 45 0 17 0 53 0 81 -1 28 -1 56 1 62 5 6 3 13
2 17 -4 4 -6 13 -7 23 -2 9 5 28 6 42 2 14 -4 33 -3 43 2 11 6 17 5 17 -2 0
-7 6 -8 18 -2 9 5 26 6 37 2 11 -4 29 -4 41 0 11 5 27 5 34 0 7 -4 25 -4 41 0
15 5 29 6 32 4 3 -3 47 -4 132 -3 11 0 29 -1 40 -4 11 -2 28 0 37 4 10 6 19 5
23 -1 3 -5 15 -6 28 -1 12 5 31 6 42 4 32 -7 142 -6 153 1 6 3 13 2 17 -4 4
-7 12 -7 24 0 10 5 20 7 23 5 4 -4 51 -6 108 -4 8 0 42 -1 76 -2 34 -1 66 1
72 5 6 3 13 2 17 -4 4 -6 12 -7 24 -1 9 5 23 6 30 1 8 -4 25 -5 40 -1 14 3 40
5 56 4 73 -6 143 -5 153 1 6 3 13 2 17 -4 4 -7 12 -7 24 0 10 5 20 7 23 5 4
-4 51 -6 108 -4 8 0 42 -1 76 -2 34 -1 66 1 72 5 6 3 13 2 17 -4 4 -6 12 -7
24 -1 9 5 23 6 30 1 8 -4 25 -5 40 -1 14 3 40 5 56 4 17 -2 44 -3 60 -2 17 0
36 0 43 0 6 -1 18 -1 25 -2 6 0 26 0 42 1 17 0 53 0 81 -1 28 -1 56 1 62 5 6
3 13 2 17 -4 4 -6 13 -7 23 -2 19 9 54 8 71 -2 6 -4 11 0 12 11 1 10 2 386 3
836 l1 817 -80 0 c-44 0 -138 -1 -209 -1 -71 0 -133 -2 -137 -5 -4 -2 -10 0
-14 6 -4 6 -11 8 -16 4 -9 -5 -119 -8 -144 -3 -5 1 -14 1 -20 0 -5 -2 -70 -2
-145 -1 -74 1 -142 1 -150 1 -15 -1 -104 -1 -339 -2 -68 0 -128 -2 -132 -5 -4
-2 -10 0 -14 6 -4 6 -11 8 -16 4 -9 -5 -119 -8 -144 -3 -5 1 -14 1 -20 0 -5
-2 -70 -2 -145 -1 -74 1 -142 1 -150 1 -15 -1 -104 -1 -339 -2 -68 0 -128 -2
-132 -5 -4 -2 -10 0 -14 6 -4 6 -11 8 -16 4 -9 -5 -119 -8 -144 -3 -5 1 -14 1
-20 0 -5 -2 -70 -2 -145 -1 -74 1 -142 1 -150 1 -15 -1 -104 -1 -339 -2 -68 0
-128 -2 -132 -5 -4 -2 -10 0 -14 6 -4 6 -11 8 -16 4 -9 -5 -119 -8 -144 -3 -5
1 -14 1 -20 0 -5 -2 -70 -2 -145 -1 -74 1 -142 1 -150 1 -15 -1 -104 -1 -339
-2 -68 0 -128 -2 -132 -5 -4 -2 -10 0 -14 6 -4 6 -11 8 -16 4 -9 -5 -119 -8
-144 -3 -5 1 -14 1 -20 0 -5 -2 -70 -2 -145 -1 -74 1 -142 1 -150 1 -15 -1
-104 -1 -339 -2 -68 0 -128 -2 -132 -5 -4 -2 -10 0 -14 6 -4 6 -11 8 -16 4
-13 -8 -134 -8 -147 -1 -5 4 -12 4 -15 1z"/>
<path d="M21226 18102 l-68 -3 5 -34 c3 -19 2 -35 -2 -35 -6 0 -7 -33 -1 -50
5 -13 1 -151 -5 -160 -3 -5 -3 -10 2 -10 4 0 8 -23 8 -50 0 -28 -3 -50 -6 -50
-5 0 -4 -36 1 -50 6 -15 4 -47 -3 -64 -7 -13 -6 -16 3 -11 9 6 9 3 1 -12 -6
-11 -8 -23 -4 -26 8 -9 11 -77 3 -77 -6 0 -6 -35 0 -50 6 -15 4 -47 -3 -64 -7
-13 -6 -16 3 -11 9 6 9 3 1 -12 -6 -11 -8 -23 -4 -26 8 -9 11 -77 3 -77 -6 0
-6 -35 0 -50 6 -15 4 -47 -3 -64 -7 -13 -6 -16 3 -11 9 6 9 3 1 -12 -6 -11 -8
-23 -4 -26 8 -9 11 -77 3 -77 -6 0 -6 -35 0 -50 6 -15 4 -47 -3 -64 -7 -13 -6
-16 3 -11 9 6 9 3 1 -12 -6 -11 -8 -23 -4 -26 8 -9 11 -77 3 -77 -6 0 -6 -34
0 -50 5 -13 1 -151 -5 -160 -3 -5 -3 -10 2 -10 4 0 8 -23 8 -50 0 -28 -3 -50
-6 -50 -5 0 -4 -36 1 -50 6 -15 4 -47 -3 -64 -7 -13 -6 -16 3 -11 9 6 9 3 1
-12 -6 -11 -8 -23 -4 -26 8 -9 11 -77 3 -77 -6 0 -6 -35 0 -50 6 -15 4 -47 -3
-64 -7 -13 -6 -16 3 -11 9 6 9 3 1 -12 -6 -11 -8 -23 -4 -26 8 -9 11 -77 3
-77 -6 0 -6 -35 0 -50 6 -15 4 -47 -3 -64 -7 -13 -6 -16 3 -11 9 6 9 3 1 -12
-6 -11 -8 -23 -4 -26 8 -9 11 -77 3 -77 -6 0 -6 -35 0 -50 6 -15 4 -47 -3 -64
-7 -13 -6 -16 3 -11 9 6 9 3 1 -12 -6 -11 -8 -23 -4 -26 8 -9 11 -77 3 -77 -6
0 -6 -34 0 -50 5 -13 1 -151 -5 -160 -3 -5 -3 -10 2 -10 4 0 8 -23 8 -50 0
-28 -3 -50 -6 -50 -5 0 -4 -36 1 -50 6 -15 4 -47 -3 -64 -7 -13 -6 -16 3 -11
9 6 9 3 1 -12 -6 -11 -8 -23 -4 -26 8 -9 11 -77 3 -77 -6 0 -6 -35 0 -50 6
-15 4 -47 -3 -64 -7 -13 -6 -16 3 -11 9 6 9 3 1 -12 -6 -11 -8 -23 -4 -26 8
-9 11 -77 3 -77 -6 0 -6 -35 0 -50 6 -15 4 -47 -3 -64 -7 -13 -6 -16 3 -11 9
6 9 3 1 -12 -6 -11 -8 -23 -4 -26 8 -9 11 -77 3 -77 -6 0 -6 -35 0 -50 6 -15
4 -47 -3 -64 -7 -13 -6 -16 3 -11 9 6 9 3 1 -12 -6 -11 -8 -23 -4 -26 8 -9 11
-77 3 -77 -6 0 -6 -34 0 -50 5 -13 1 -151 -5 -160 -3 -5 -3 -10 2 -10 4 0 8
-23 8 -50 0 -28 -3 -50 -6 -50 -5 0 -4 -36 1 -50 6 -15 4 -47 -3 -64 -7 -13
-6 -16 3 -11 9 6 9 3 1 -12 -6 -11 -8 -23 -4 -26 8 -9 11 -77 3 -77 -6 0 -6
-35 0 -50 6 -15 4 -47 -3 -64 -7 -13 -6 -16 3 -11 9 6 9 3 1 -12 -6 -11 -8
-23 -4 -26 8 -9 11 -77 3 -77 -6 0 -6 -35 0 -50 6 -15 4 -47 -3 -64 -7 -13 -6
-16 3 -11 9 6 9 3 1 -12 -6 -11 -8 -23 -4 -26 8 -9 11 -77 3 -77 -6 0 -6 -35
0 -50 6 -15 4 -47 -3 -64 -7 -13 -6 -16 3 -11 9 6 9 3 1 -12 -6 -11 -8 -23 -4
-26 8 -9 11 -77 3 -77 -6 0 -6 -34 0 -50 5 -13 1 -151 -5 -160 -3 -5 -3 -10 2
-10 4 0 8 -23 8 -50 0 -28 -3 -50 -6 -50 -5 0 -4 -36 1 -50 6 -15 4 -47 -3
-64 -7 -13 -6 -16 3 -11 9 6 9 3 1 -12 -6 -11 -8 -23 -4 -26 8 -9 11 -77 3
-77 -6 0 -6 -35 0 -50 6 -15 4 -47 -3 -64 -7 -13 -6 -16 3 -11 9 6 9 3 1 -12
-6 -11 -8 -23 -4 -26 8 -9 11 -77 3 -77 -6 0 -6 -35 0 -50 6 -15 4 -47 -3 -64
-7 -13 -6 -16 3 -11 9 6 9 3 1 -12 -6 -11 -8 -23 -4 -26 8 -9 11 -77 3 -77 -6
0 -6 -35 0 -50 6 -15 4 -47 -3 -64 -7 -13 -6 -16 3 -11 9 6 9 3 1 -12 -6 -11
-8 -23 -4 -26 8 -9 11 -77 3 -77 -6 0 -6 -34 0 -50 5 -13 1 -151 -5 -160 -3
-5 -3 -10 2 -10 4 0 8 -23 8 -50 0 -28 -3 -50 -6 -50 -5 0 -4 -36 1 -50 6 -15
4 -47 -3 -64 -7 -13 -6 -16 3 -11 9 6 9 3 1 -12 -6 -11 -8 -23 -4 -26 8 -9 11
-77 3 -77 -6 0 -6 -35 0 -50 6 -15 4 -47 -3 -64 -7 -13 -6 -16 3 -11 9 6 9 3
1 -12 -6 -11 -8 -23 -4 -26 8 -9 11 -77 3 -77 -6 0 -6 -35 0 -50 6 -15 4 -47
-3 -64 -7 -13 -6 -16 3 -11 9 6 9 3 1 -12 -6 -11 -8 -23 -4 -26 8 -9 11 -77 3
-77 -6 0 -6 -35 0 -50 6 -15 4 -47 -3 -64 -7 -13 -6 -16 3 -11 9 6 9 3 1 -12
-6 -11 -8 -23 -4 -26 8 -9 11 -77 3 -77 -6 0 -6 -34 0 -50 5 -13 1 -151 -5
-160 -3 -5 -3 -10 2 -10 4 0 8 -23 8 -50 0 -28 -3 -50 -6 -50 -5 0 -4 -36 1
-50 1 -3 2 -18 2 -33 l1 -28 2156 4 c1849 4 2266 7 2266 17 0 1 18 3 41 5 47
3 112 12 199 25 132 21 164 26 175 30 7 3 19 5 78 14 28 5 52 12 52 16 0 4 8
7 18 7 19 -1 27 1 192 49 63 18 129 38 145 45 17 7 35 13 40 15 24 6 128 45
143 54 43 22 215 100 223 100 5 0 9 4 9 9 0 5 10 13 22 17 20 6 206 120 218
134 3 3 23 19 45 35 135 100 286 249 379 375 23 30 44 57 49 58 4 2 7 8 7 12
0 5 13 29 30 53 33 49 123 220 132 252 4 11 18 53 33 94 15 41 28 81 31 90 2
9 8 36 15 61 21 87 25 104 33 162 13 89 20 145 20 180 1 21 5 38 9 38 5 0 5 5
2 11 -9 14 -14 59 -6 59 3 0 6 44 5 98 -1 53 -3 97 -4 97 0 0 -3 38 -5 85 -3
74 -16 194 -29 255 -2 11 -7 40 -11 65 -4 25 -9 54 -12 65 -3 11 -8 36 -13 55
-78 332 -256 651 -505 904 -39 39 -95 91 -124 116 -30 25 -59 50 -65 55 -6 6
-40 31 -76 55 -36 25 -67 47 -70 50 -13 13 -246 141 -263 144 -7 1 -34 13 -62
25 -84 39 -107 48 -193 76 -46 15 -82 29 -80 30 2 2 48 26 103 55 182 95 338
211 483 360 83 84 222 259 222 278 0 6 3 12 8 14 9 4 74 109 76 124 1 7 7 18
12 25 10 12 66 125 69 139 1 3 8 19 15 35 7 17 14 32 15 35 2 7 24 61 32 80 8
18 6 14 22 70 7 25 18 51 23 58 6 6 8 12 5 12 -3 0 0 20 7 45 8 25 12 45 10
45 -2 0 0 10 5 23 5 13 12 41 15 63 4 21 8 46 11 54 2 8 7 38 10 65 4 28 9 64
11 80 7 44 12 388 6 399 -2 4 -6 31 -8 60 -3 52 -7 82 -18 146 -11 63 -15 85
-20 108 -4 12 -8 30 -10 40 -16 70 -33 127 -58 197 -16 44 -30 87 -32 95 -6
22 -99 234 -106 240 -3 3 -11 19 -18 35 -41 93 -175 294 -261 389 -91 101
-189 192 -286 265 -38 28 -80 59 -91 69 -12 9 -28 18 -35 20 -8 2 -16 7 -19
12 -7 10 -189 111 -210 116 -3 0 -16 5 -30 11 -14 6 -59 22 -101 37 -67 23
-107 32 -244 61 -50 10 -95 14 -223 19 -68 3 -127 8 -131 10 -5 3 -11 3 -14 0
-3 -3 -65 -5 -139 -4 -73 1 -140 1 -148 1 -15 -1 -101 -1 -339 -2 -68 0 -128
-2 -132 -5 -4 -2 -10 0 -14 6 -4 6 -11 8 -16 4 -9 -5 -119 -8 -144 -3 -5 1
-14 1 -20 0 -5 -2 -70 -2 -145 -1 -74 1 -142 1 -150 1 -15 -1 -104 -1 -339 -2
-68 0 -128 -2 -132 -5 -4 -2 -10 0 -14 6 -4 6 -11 8 -16 4 -9 -5 -119 -8 -144
-3 -5 1 -14 1 -20 0 -5 -2 -70 -2 -145 -1 -74 1 -142 1 -150 1 -15 -1 -104 -1
-339 -2 -68 0 -128 -2 -132 -5 -4 -2 -10 0 -14 6 -4 6 -11 8 -16 4 -9 -5 -119
-8 -144 -3 -5 1 -14 1 -20 0 -5 -2 -70 -2 -145 -1 -74 1 -142 1 -150 1 -15 -1
-104 -1 -339 -2 -68 0 -128 -2 -132 -5 -4 -2 -10 0 -14 6 -4 6 -11 8 -16 4 -9
-5 -119 -8 -144 -3 -5 1 -14 1 -20 0 -5 -2 -70 -2 -145 -1 -74 1 -142 1 -150
1 -83 -3 -220 -3 -227 0 -4 2 -39 3 -77 1z m3849 -1621 c0 -2 15 -5 34 -8 68
-9 173 -52 255 -104 47 -30 85 -57 86 -60 0 -3 19 -27 43 -53 73 -78 169 -269
182 -361 2 -11 7 -38 11 -60 9 -49 11 -289 2 -365 -6 -52 -9 -64 -24 -107 -4
-10 -8 -27 -9 -38 -3 -22 -63 -157 -74 -165 -3 -3 -12 -17 -20 -33 -32 -61
-204 -217 -240 -217 -6 0 -11 -4 -11 -8 0 -18 -177 -83 -265 -98 -22 -4 -480
-8 -1017 -9 l-978 -2 0 847 0 846 1013 -1 c556 -1 1012 -3 1012 -4z m268
-3183 c76 -13 165 -46 222 -81 28 -17 52 -34 55 -37 3 -3 21 -17 40 -32 169
-129 292 -348 327 -583 15 -95 5 -357 -13 -387 -3 -5 -7 -21 -10 -36 -9 -56
-67 -183 -102 -224 -8 -10 -12 -18 -9 -18 19 0 -146 -172 -197 -207 -23 -15
-43 -31 -46 -34 -6 -8 -170 -92 -185 -96 -31 -6 -55 -12 -95 -23 -25 -7 -115
-14 -201 -16 -86 -2 -160 -4 -165 -5 -5 -1 -13 0 -19 1 -14 2 -208 2 -220 0
-5 -1 -14 -1 -20 0 -14 2 -268 2 -280 0 -5 -1 -14 -1 -20 0 -5 1 -62 1 -125 0
-63 0 -121 -1 -127 -1 -7 0 -60 0 -118 0 -58 0 -112 0 -120 0 -8 0 -62 0 -120
0 -58 0 -112 0 -120 0 -8 0 -62 0 -120 0 -58 0 -111 0 -117 0 -7 0 -97 1 -200
2 l-188 2 0 887 c0 488 2 889 6 892 9 10 2232 6 2287 -4z"/>
</g>
</svg>
